@startuml
'https://plantuml.com/class-diagram

@startuml
class PhysicalRecord {
  *id: Long
  +userId: Long
  +height: Float
  +weight: Float
  +age: Int
  +gender: Gender
  +activityLevel: ActivityLevel
  ..
  createdAt: Instant
  createdById: Long
  createdByRole: UserRole
  modifiedAt: Instant
  modifiedById: Long
  modifiedByRole: UserRole
}

enum Gender {
  FEMALE
  MALE
  NONE
}

enum ActivityLevel {
  SEDENTARY,
  LIGHTLY_ACTIVE,
  MODERATELY_ACTIVE,
  ACTIVE,
  VERY_ACTIVE,
}

enum UserRole {
  ADMIN
  USER
}

PhysicalRecord::gender --> Gender
PhysicalRecord::ActivityLevel --> ActivityLevel
PhysicalRecord::createdByRole --> UserRole
PhysicalRecord::modifiedByRole --> UserRole

@enduml
